HIERARCHY
ROOT Hips
{
  OFFSET 179.979 97.3047 303.174
  CHANNELS 6 Xposition Yposition Zposition Zrotation Xrotation Yrotation
  JOINT Spine
  {
    OFFSET 0.000859786 9.92346 -1.22733
    CHANNELS 3 Zrotation Xrotation Yrotation
    JOINT Spine1
    {
      OFFSET 0 11.732 0
      CHANNELS 3 Zrotation Xrotation Yrotation
      JOINT Spine2
      {
        OFFSET 0 13.4588 0
        CHANNELS 3 Zrotation Xrotation Yrotation
        JOINT Neck
        {
          OFFSET 2.54812e-05 15.0278 0.877907
          CHANNELS 3 Zrotation Xrotation Yrotation
          JOINT Head
          {
            OFFSET 0 10.3218 3.14243
            CHANNELS 3 Zrotation Xrotation Yrotation
            End Site
            {
              OFFSET 0 0 0
            }
          }
        }
        JOINT LeftShoulder
        {
          OFFSET 6.10582 9.10629 0.757062
          CHANNELS 3 Zrotation Xrotation Yrotation
          JOINT LeftArm
          {
            OFFSET 0 12.9223 0
            CHANNELS 3 Zrotation Xrotation Yrotation
            JOINT LeftForeArm
            {
              OFFSET 0 27.4047 0
              CHANNELS 3 Zrotation Xrotation Yrotation
              JOINT LeftHand
              {
                OFFSET -1.28204e-05 27.6145 0
                CHANNELS 3 Zrotation Xrotation Yrotation
                End Site
                {
                  OFFSET 0 0 0
                }
              }
            }
          }
        }
        JOINT RightShoulder
        {
          OFFSET -6.1057 9.10638 0.757076
          CHANNELS 3 Zrotation Xrotation Yrotation
          JOINT RightArm
          {
            OFFSET 0 12.9223 0
            CHANNELS 3 Zrotation Xrotation Yrotation
            JOINT RightForeArm
            {
              OFFSET 0 27.4047 0
              CHANNELS 3 Zrotation Xrotation Yrotation
              JOINT RightHand
              {
                OFFSET 1.28428e-05 27.6145 1.44975e-05
                CHANNELS 3 Zrotation Xrotation Yrotation
                End Site
                {
                  OFFSET 0 0 0
                }
              }
            }
          }
        }
      }
    }
  }
  JOINT LeftUpLeg
  {
    OFFSET 9.12387 -6.65719 -0.0554031
    CHANNELS 3 Zrotation Xrotation Yrotation
    JOINT LeftLeg
    {
      OFFSET 0 40.5994 0
      CHANNELS 3 Zrotation Xrotation Yrotation
      JOINT LeftFoot
      {
        OFFSET 0 42.099 0
        CHANNELS 3 Zrotation Xrotation Yrotation
        JOINT LeftToeBase
        {
          OFFSET 0 15.7216 0
          CHANNELS 3 Zrotation Xrotation Yrotation
          End Site
          {
            OFFSET 0 0 0
          }
        }
      }
    }
  }
  JOINT RightUpLeg
  {
    OFFSET -9.12503 -6.6556 -0.0553527
    CHANNELS 3 Zrotation Xrotation Yrotation
    JOINT RightLeg
    {
      OFFSET 0 40.5994 0
      CHANNELS 3 Zrotation Xrotation Yrotation
      JOINT RightFoot
      {
        OFFSET 0 42.099 0
        CHANNELS 3 Zrotation Xrotation Yrotation
        JOINT RightToeBase
        {
          OFFSET 0 15.7216 0
          CHANNELS 3 Zrotation Xrotation Yrotation
          End Site
          {
            OFFSET 0 0 0
          }
        }
      }
    }
  }
}
MOTION
Frames:	18
Frame Time:	0.0333333
213.04 94.747 -340.166 3.15011 -5.28067 -5.00661 1.36516 -2.58548 -0.33036 2.78377 8.76116 -1.10224 2.91664 15.3544 -1.12848 6.99243 6.97334 0.916751 -18.2547 -36.8957 0.897699 -100.055 -14.6903 90.2843 40.8098 55.3473 -12.2799 78.7111 -12.2956 0.307865 39.4298 -22.2765 55.7505 111.418 -10.0372 -91.6715 -37.5754 42.4727 1.54396 -64.1653 -18.3645 1.10194 -12.5565 -22.9169 -14.3318 -169.299 21.4431 -14.0671 167.33 -80.7251 169.817 0.546148 78.8622 3.07424 -0.965267 26.367 -3.60229 173.694 20.0459 3.88807 0.195108 -43.5188 -8.38095 24.7254 82.2206 -31.5377 0.963537 26.3682 3.55537 
213.128 97.0802 -340.375 4.55448 -4.85473 -3.79619 1.05693 -2.39473 -0.0589783 2.14173 9.15326 -0.461937 2.19826 15.7475 -0.47284 5.94071 5.51783 0.425658 -16.5364 -37.7881 0.0397712 -98.4395 -15.2175 90.1929 45.1338 61.139 -26.5935 84.9514 -7.27064 0.675376 44.4119 -27.9084 56.5556 109.867 -9.01231 -91.88 -43.5854 41.1958 -4.13983 -40.3148 -20.8282 1.17392 0.0767394 -23.2034 0.126455 -170.336 29.2128 -12.6733 171.828 -74.4874 176.153 -1.26469 72.8569 6.71358 -0.965267 26.367 -3.60229 173.234 15.8544 1.54896 0.243001 -34.4516 -6.49868 12.0733 78.9171 -17.4132 0.963537 26.3682 3.55537 
213.532 100.037 -340.512 6.23576 -3.37413 -0.986386 0.785848 -2.53159 0.0543954 1.58286 8.88393 -0.143968 1.60133 15.4784 -0.146774 3.18155 2.77317 -0.762003 -14.68 -35.4649 -1.48959 -98.2833 -13.8999 90.4163 43.192 63.4954 -29.3038 88.5059 -3.66211 0.906446 47.1434 -36.0934 53.5698 109.693 -8.48708 -92.0122 -47.2961 38.9499 -7.68583 -20.0404 -14.0239 0.735805 8.23658 -13.5474 -3.42488 -173.833 36.5099 -10.4797 172.502 -76.7642 178.77 -6.41382 68.7808 10.2019 -0.965267 26.367 -3.60229 172.791 9.31908 -7.64829 1.29192 -19.3839 1.4391 -5.40159 71.0975 3.66558 0.963537 26.3682 3.55537 
213.616 101.985 -340.268 8.989 -1.08863 1.70789 0.254892 -2.92168 0.546443 0.472704 8.10795 1.01701 0.352969 14.7014 1.04133 -0.150127 0.627033 -3.29722 -12.2812 -32.1282 -4.32334 -98.1246 -11.9642 90.7366 39.5338 62.3263 -24.1502 90.2305 -3.01111 0.983918 47.0808 -39.8693 48.4221 109.099 -6.91345 -92.3909 -45.5709 39.0055 -15.1127 -8.57768 -9.11229 0.419145 5.61994 -0.862453 -21.2173 -177.787 42.6128 -10.3941 172.51 -84.0314 179.2 -9.91217 68.1378 11.1021 -0.965267 26.367 -3.60229 170.374 4.74905 -9.11945 2.95646 -11.7247 9.25734 -15.9807 66.7072 15.9929 0.963537 26.3682 3.55537 
213.393 102.788 -340.141 9.42927 -0.451675 3.22654 0.0201049 -2.81139 1.39397 -0.0649643 8.32577 2.79302 -0.396448 14.9122 2.8603 -1.93833 -0.880081 -5.86472 -9.19026 -31.297 -7.08563 -97.0142 -12.5939 90.6103 40.8522 58.8759 -21.4582 94.1939 -2.16488 1.1445 51.7745 -43.6498 47.0248 107.84 -4.38448 -92.9291 -39.7687 41.2958 -27.6033 -9.17775 -9.83296 0.451869 2.83032 6.59613 -31.7627 -177.133 45.5606 -12.0567 -19.6227 -84.5531 -13.1989 -10.8109 66.976 9.89739 -0.965267 26.367 -3.60229 169.994 2.90792 -1.24033 3.44255 -17.5696 1.35513 -2.73974 69.1288 1.88479 0.963537 26.3682 3.55537 
213.01 102.601 -339.997 8.4985 -1.16652 5.09369 0.109118 -2.43182 1.93743 0.0617491 9.0867 3.85841 -0.398222 15.6658 3.95756 -3.55 -0.797631 -7.54109 -6.31265 -31.9577 -9.07445 -99.1774 -13.5347 90.4887 40.5848 53.1084 -21.2079 102.473 -0.656921 1.4808 60.2556 -45.1194 51.5242 106.73 -3.30321 -93.0786 -34.2464 43.4663 -36.1207 -13.6771 -12.3881 0.600548 -0.564613 -0.240462 -25.7274 -176.011 45.4378 -12.5337 -12.7697 -69.049 -6.47438 -10.3175 67.0343 8.2088 -0.965267 26.367 -3.60229 172.549 -0.293203 1.75906 1.5582 -21.3315 -2.60673 3.36236 68.8646 -4.85184 0.963537 26.3682 3.55537 
213.046 101.37 -339.088 7.03807 -1.31746 7.4694 0.199655 -2.41182 2.12588 0.228984 9.12977 4.20783 -0.272821 15.706 4.31637 -4.70573 0.657854 -8.28149 -2.9847 -33.9759 -10.0684 -102.53 -15.4066 90.1388 40.7958 47.3385 -23.89 111.713 0.597598 1.85313 61.043 -44.1515 51.3919 108.046 -3.86189 -93.08 -29.5221 42.9388 -37.491 -19.7396 -13.7923 0.723175 -1.01319 -9.25231 -17.3595 -177.52 43.5282 -10.7233 -7.72345 -49.306 -2.6193 -10.1613 66.8635 4.41948 -0.965267 26.367 -3.60229 174.855 -3.05259 -1.45455 3.21235 -20.344 0.703259 -4.02883 71.3712 1.13145 0.963537 26.3682 3.55537 
213.254 99.782 -338.263 6.1097 -1.99492 7.85329 0.379386 -2.32279 2.6716 0.544288 9.3158 5.24648 -0.0820018 15.8819 5.3839 -7.54067 3.09755 -8.76275 0.293763 -34.9589 -11.2023 -104.789 -17.6464 89.6055 44.7564 43.9258 -29.8726 117.96 0.883475 2.09034 59.412 -43.2384 49.3962 107.289 -4.40499 -92.8702 -25.2319 43.9672 -35.5042 -26.0988 -15.0744 0.836885 -0.135105 -13.4205 -12.1344 -179.621 39.195 -9.74841 -2.95578 -27.1927 1.73903 -10.3833 66.4461 4.39087 -0.965267 26.367 -3.60229 175.435 -3.93624 -4.18023 5.86097 -21.6014 3.02207 -12.8322 76.0508 7.41678 0.963537 26.3682 3.55537 
213.278 98.6547 -338.115 5.73714 -2.15193 5.49882 0.401436 -2.16217 3.60394 0.501688 9.64006 7.11472 -0.348429 16.1824 7.30551 -9.69443 5.0278 -9.07672 2.61991 -37.3931 -12.0782 -105.186 -20.0849 89.0124 50.4836 42.7376 -36.3353 120.804 0.67944 2.18624 61.1235 -42.4816 51.3442 104.86 -3.82156 -92.7647 -23.6439 45.7086 -34.5025 -30.4957 -16.1295 0.916248 -0.0351305 -12.8365 -14.698 -179.954 36.2228 -1.39529 -3.15602 -11.0357 -1.98293 1.94248 69.2578 -3.73708 -0.965267 26.367 -3.60229 175.1 -2.8109 1.02776 4.73106 -24.8771 -1.03761 -6.52721 80.642 -1.45305 0.963537 26.3682 3.55537 
213.408 97.9377 -337.455 5.38096 -1.40984 3.80878 0.110329 -2.28895 4.09262 -0.120288 9.36701 8.19122 -1.09692 15.8924 8.40536 -8.83531 4.48243 -8.89572 4.08522 -36.7356 -11.4101 -104.099 -21.1196 88.8294 52.496 43.3235 -39.8087 122.118 0.612439 2.23309 60.6368 -40.9665 51.7394 102.976 -2.71013 -92.8007 -26.0634 47.4604 -36.2101 -30.404 -16.3897 0.925914 -1.42497 -10.513 -18.7866 -179.186 35.9306 -0.707022 -3.09842 -7.88843 -4.53184 -4.26995 68.0432 -7.98941 -0.965267 26.367 -3.60229 175.109 -1.58158 2.33531 4.31124 -26.5663 -2.24693 -4.78922 82.8657 -4.65937 0.963537 26.3682 3.55537 
213.254 98.7101 -336.898 6.17007 0.780846 4.77896 -0.412597 -2.7165 4.00531 -1.138 8.47536 8.17598 -2.10852 15.0012 8.37359 -8.7845 3.76532 -9.24214 4.80602 -35.3134 -11.6389 -104.39 -20.8045 88.8854 52.1155 44.346 -38.2598 120.048 0.544007 2.15512 58.6005 -37.3271 52.7453 101.338 -1.79913 -92.7916 -28.5803 49.8572 -35.6576 -29.5031 -15.725 0.892259 -0.0618022 -6.20971 -24.8259 178.545 36.9583 -1.40806 -4.23075 -12.9445 -3.35916 -6.44847 62.513 -4.94957 -0.965267 26.367 -3.60229 175.015 -1.7159 0.585991 4.08112 -22.3986 -0.601957 -11.2921 80.5314 2.59828 0.963537 26.3682 3.55537 
213.283 100 -335.754 6.52614 3.7661 5.29984 -0.899754 -3.45388 4.25483 -2.0767 6.96011 8.80798 -3.1147 13.4752 8.99185 -8.66104 3.39014 -10.0532 7.35652 -34.9459 -12.1699 -103.656 -20.7162 88.9468 53.5945 46.6453 -34.6012 113.726 0.404572 1.9203 53.6319 -35.0349 49.6812 100.523 -1.16298 -92.8104 -27.8773 53.0698 -36.0614 -28.9679 -15.7039 0.887094 4.35228 -1.42268 -28.1229 176.108 39.2795 1.4261 -5.05067 -22.7506 -0.820632 -8.57385 57.6327 -0.169396 -0.965267 26.367 -3.60229 174.651 -3.24001 2.47829 3.35846 -14.2361 -1.2933 -5.95773 74.891 -1.1528 0.963537 26.3682 3.55537 
213.335 100.824 -334.283 7.08997 6.70198 4.47502 -1.50058 -4.3325 4.8787 -3.23353 5.1355 10.2046 -4.4261 11.6239 10.3776 -6.57599 2.82991 -11.4356 7.45908 -32.4439 -13.1331 -103.607 -20.6066 88.9743 55.3613 46.8322 -28.5964 104.881 -0.633697 1.56795 50.7255 -36.3189 45.1966 100.76 -1.61768 -92.7564 -26.0155 55.7251 -39.3407 -29.8644 -16.117 0.910669 7.17171 3.75332 -28.3294 174.426 39.3152 3.1893 -5.33393 -28.6984 2.33794 -16.3826 56.5801 3.78042 -0.965267 26.367 -3.60229 174.105 -2.94518 4.30268 3.29403 -10.3043 -0.675135 -4.05001 70.9728 -0.587648 0.963537 26.3682 3.55537 
213.446 100.769 -332.693 6.93687 6.99359 4.12765 -1.77533 -4.67329 5.14174 -3.75858 4.41885 10.7949 -5.01623 10.8948 10.9615 -4.75915 3.80245 -12.0938 8.14237 -31.6406 -13.41 -104.413 -20.0829 89.0522 55.2459 46.7751 -22.221 100.387 -1.4257 1.38227 55.8542 -45.9437 44.8759 101.931 -1.75972 -92.8694 -24.1085 55.6637 -43.3929 -33.4988 -16.6979 0.961876 5.97704 8.34698 -27.9759 173.835 36.4739 6.5514 -6.51263 -32.2044 2.53769 -20.9782 55.6839 4.22095 -0.965267 26.367 -3.60229 173.864 -1.91188 10.8929 3.33274 -15.0602 -1.57766 0.664032 72.1944 -3.36169 0.963537 26.3682 3.55537 
213.522 99.8775 -330.519 6.03285 5.17056 5.15078 -1.81981 -4.71784 4.74704 -3.82812 4.33922 10.0154 -4.99553 10.8317 10.1684 -2.38339 6.57961 -11.7105 8.72686 -32.2243 -12.419 -106.074 -19.1799 89.192 51.3711 47.9627 -17.8243 103.894 -0.838243 1.52623 57.9137 -49.758 46.7962 103.194 -2.39368 -92.8898 -22.4078 54.8818 -44.9081 -40.8166 -17.9166 1.05574 4.81598 11.0604 -32.0745 173.794 31.0948 9.88239 -7.1841 -33.2492 0.760993 -18.136 55.387 2.72447 -0.965267 26.367 -3.60229 175.181 -2.83326 12.1175 2.46429 -20.8349 -0.648676 0.8408 74.1736 -1.6994 0.963537 26.3682 3.55537 
213.454 98.3495 -328.627 5.5099 3.19611 4.86398 -1.99584 -4.72195 4.36997 -4.16544 4.32772 9.30959 -5.25116 10.834 9.45162 1.72214 9.48137 -10.9658 8.45334 -33.0662 -10.4073 -106.519 -19.0696 89.202 48.7194 50.791 -17.0408 112.569 0.178204 1.87116 60.3467 -48.2408 48.0807 105.248 -4.3367 -92.6884 -19.6486 53.6141 -43.1579 -52.9888 -18.2746 1.1074 3.93885 8.46362 -40.905 175.261 26.5635 6.33757 -6.98747 -34.4162 4.99832 -13.462 62.095 11.9985 -0.965267 26.367 -3.60229 175.186 -1.53829 11.6201 1.60861 -29.9948 -1.9826 4.68314 77.1288 -5.64518 0.963537 26.3682 3.55537 
213.623 96.1922 -327.11 6.1282 0.348253 3.74591 -2.32754 -4.41127 3.9292 -4.83947 4.93505 8.53541 -5.83752 11.4554 8.67625 4.23838 12.8057 -9.41701 9.88009 -34.9175 -7.58785 -107.226 -18.9324 89.2075 48.9378 52.6887 -18.8499 121.453 0.893652 2.21648 61.8902 -44.3733 49.5806 106.079 -5.64705 -92.4636 -15.3333 53.2403 -37.0081 -68.4177 -14.3698 0.931366 -0.781689 3.02164 -50.2456 174.927 23.5432 4.24464 -8.59744 -38.5908 2.5996 -7.57782 70.8423 13.647 -0.965267 26.367 -3.60229 172.504 3.84765 10.9741 0.558473 -47.3704 -3.78722 13.5225 77.2097 -11.5975 0.963537 26.3682 3.55537 
213.99 94.4229 -326.004 7.63678 -3.0493 2.62216 -2.82022 -3.71718 3.40434 -5.8625 6.30224 7.66642 -6.76394 12.8368 7.81451 5.89858 13.4245 -7.68764 9.81334 -35.0476 -5.10981 -107.141 -17.9342 89.468 52.4522 52.8108 -23.0914 127.883 0.705941 2.44084 65.1017 -41.2464 53.0216 106.325 -7.40029 -92.0699 -13.4777 53.7104 -26.8156 -82.3536 -7.10964 0.590587 -4.94824 -0.325836 -51.4717 172.762 20.1414 -0.248211 -6.08267 -42.4061 3.25151 -4.93044 77.5808 14.8207 -0.965267 26.367 -3.60229 167.538 12.3354 13.5736 -6.35004 -69.2623 -8.45616 8.72678 71.9729 -5.16283 0.963537 26.3682 3.55537 
